<svg width="92" height="138" viewBox="0 0 92 138" fill="none" xmlns="http://www.w3.org/2000/svg">
<path d="M0 0H92V138H0V0Z" fill="#E5F0FF"/>
<path d="M31.8 91.6C30.535 91.6 29.4521 91.1496 28.5513 90.2487C27.6504 89.3479 27.2 88.265 27.2 87V50.2C27.2 48.935 27.6504 47.8521 28.5513 46.9512C29.4521 46.0504 30.535 45.6 31.8 45.6H59.4C60.665 45.6 61.7479 46.0504 62.6488 46.9512C63.5496 47.8521 64 48.935 64 50.2V87C64 88.265 63.5496 89.3479 62.6488 90.2487C61.7479 91.1496 60.665 91.6 59.4 91.6H31.8ZM31.8 87H59.4V50.2H54.8V66.3L49.05 62.85L43.3 66.3V50.2H31.8V87Z" fill="#0F69EF"/>
</svg>
